<svg width="38" height="38" fill="none" xmlns="http://www.w3.org/2000/svg"><path d="M16.39 1.354c1.271-1.805 3.948-1.805 5.22 0a3.193 3.193 0 0 0 3.952 1.06c2.005-.929 4.323.41 4.522 2.61a3.193 3.193 0 0 0 2.893 2.892c2.2.2 3.538 2.518 2.61 4.522a3.193 3.193 0 0 0 1.059 3.952c1.805 1.271 1.805 3.948 0 5.22a3.193 3.193 0 0 0-1.06 3.952c.929 2.005-.41 4.323-2.61 4.522a3.193 3.193 0 0 0-2.892 2.893c-.2 2.2-2.517 3.538-4.522 2.61a3.193 3.193 0 0 0-3.952 1.059c-1.271 1.805-3.948 1.805-5.22 0a3.193 3.193 0 0 0-3.952-1.06c-2.005.929-4.323-.41-4.522-2.61a3.193 3.193 0 0 0-2.892-2.892c-2.2-.2-3.539-2.517-2.61-4.522a3.193 3.193 0 0 0-1.06-3.952c-1.805-1.271-1.805-3.948 0-5.22a3.193 3.193 0 0 0 1.06-3.952c-.929-2.005.41-4.323 2.61-4.522a3.193 3.193 0 0 0 2.892-2.892c.2-2.2 2.518-3.539 4.522-2.61 1.4.647 3.063.201 3.952-1.06z" fill="#2BE080"/></svg>